# xmcd CD database file
#
# Track frame offsets:
#	150
#	16190
#	37925
#	62500
#	77087
#	98457
#	110935
#	129982
#	142750
#	166742
#	183397
#	204260
#	226242
#	249695
#
# Disc length: 3617 seconds
#
# Revision: 0
# Processed by: cddbd v1.5.1PL2 Copyright (c) Steve Scherf et al.
# Submitted via: CDex 1.51
#
DISCID=a40e1f0e
DTITLE=Ballbearing Jazzband - What a wonderful world
DYEAR=1994
DGENRE=Jazz
TTITLE0=Groovy at the movies
TTITLE1=Stardust
TTITLE2=Blues rhapsody
TTITLE3=South rampart street parade
TTITLE4=Basin street blues
TTITLE5=Carry me back to old virginy
TTITLE6=Don't get arround much more
TTITLE7=Wild cat blues
TTITLE8=Tinroof blues
TTITLE9=Blues for Horst
TTITLE10=Blueberry Hill
TTITLE11=It had to be you
TTITLE12=Ellington medley
TTITLE13=What a wonderful world
EXTD=YEAR: 1994
EXTT0=
EXTT1=
EXTT2=
EXTT3=
EXTT4=
EXTT5=
EXTT6=
EXTT7=
EXTT8=
EXTT9=
EXTT10=
EXTT11=
EXTT12=
EXTT13=
PLAYORDER=
